<?xml version="1.0" standalone="no"?><!DOCTYPE svg PUBLIC "-//W3C//DTD SVG 1.1//EN" "http://www.w3.org/Graphics/SVG/1.1/DTD/svg11.dtd"><svg t="1731740852795" class="icon" viewBox="0 0 1024 1024" version="1.1" xmlns="http://www.w3.org/2000/svg" p-id="1009" xmlns:xlink="http://www.w3.org/1999/xlink" width="200" height="200"><path d="M373.71452331 470.89464215V356.34241029c0-7.83041513 9.76641194-11.53819448 15.06447413-5.71291902l45.40085061 49.90377157a139.56461761 139.56461761 0 0 1 155.6316612 0l45.40949331-49.90377157C640.51906516 344.81285852 650.28547669 348.52063787 650.28547669 356.34241029V667.57116142H373.71452331V470.89464215z" fill="#FFFFFF" p-id="1010"></path><path d="M451.50010402 490.39289437a12.96426346 12.96426346 0 1 1-25.9285269 0 12.96426346 12.96426346 0 0 1 25.92852691 0zM598.42842288 490.39289437a12.96426346 12.96426346 0 1 1-25.9285269 0 12.96426346 12.96426346 0 0 1 25.9285269 0zM517.23756245 577.44360189a4.32142129 4.32142129 0 0 0-4.55477805-5.1165625 4.33006399 4.33006399 0 0 0-4.56342072 5.0992767c-2.07428216 4.23499259-6.93155939 6.46484591-13.10254882 6.91427398a29.18687858 29.18687858 0 0 1-9.29105533-0.78649852 13.86311918 13.86311918 0 0 1-2.9817806-1.12356977 3.69049353 3.69049353 0 0 1-0.70007021-0.45807039 4.32142129 4.32142129 0 0 0-7.31184459 4.60663469c0.98528403 1.61621136 2.53235292 2.71385261 3.88927904 3.45713719 1.4433548 0.77785582 3.12870905 1.40014044 4.89184847 1.86685394 3.53492236 0.93342697 7.82177242 1.38285464 12.1345506 1.06306961 5.76477569-0.42349914 12.44569292-2.33356742 16.99182823-7.05255933 4.39056376 4.68442067 10.84676696 6.62906017 16.55104286 7.05255933 4.2436357 0.31978503 8.48727101-0.12964265 12.06540773-1.0544269 3.33613726-0.86428411 6.89698816-2.36813867 8.9626276-4.76220625a4.32142129 4.32142129 0 0 0-6.5599173-5.63513304c-0.27657109 0.32842814-1.67671154 1.27914053-4.58070657 2.03106781-2.67928098 0.69142751-5.96356118 1.04578377-9.24784099 0.80378433-5.91170414-0.44942768-10.55291045-2.63606704-12.59262136-6.91427357z" fill="#000000" p-id="1011"></path><path d="M432.81427883 411.88995763l6.19691794-4.17449283a130.92177505 130.92177505 0 0 1 145.97760646 0l6.19691794 4.17449283L641.64263451 356.42019587v191.08460017l-30.28451941 7.43284451a4.32142129 4.32142129 0 1 0 2.05699634 8.39220001L641.64263451 556.39828077V572.49989598h-30.24994818a4.32142129 4.32142129 0 0 0 0 8.64284257H641.64263451v16.48189999l-29.03130743-4.95234863a4.32142129 4.32142129 0 0 0-1.45199749 8.51319993l30.48330492 5.2116339V667.57116142H382.35736549v-61.15675225l30.49194762-5.07334817a4.32142129 4.32142129 0 1 0-1.41742625-8.52184266L382.35736549 597.65056707V581.14273855h30.24994818a4.32142129 4.32142129 0 0 0 0-8.64284257H382.35736549v-16.42140025l28.90166478 5.30670531a4.32142129 4.32142129 0 1 0 1.55571161-8.50455683L382.35736549 547.28872512V356.42883858l50.45691334 55.46976175zM650.28547669 545.37865684V356.42883858c0-7.89955799-9.7231976-11.66783711-15.0385456-5.81663273l-45.42677914 49.94698552a139.57326033 139.57326033 0 0 0-155.6316612 0L388.75306891 350.58627732C383.43772091 344.76100148 373.71452331 348.52928059 373.71452331 356.42883858v189.27824639l-28.90166479-5.29806219a4.32142129 4.32142129 0 0 0-1.55571161 8.50455682L373.71452331 554.49685559V572.49989598H343.46457512a4.32142129 4.32142129 0 0 0 0 8.64284257H373.71452331v17.94254061l-30.49194763 5.07334815a4.32142129 4.32142129 0 1 0 1.41742587 8.52184266L373.71452331 607.84912125V667.57116142h276.57095338v-59.69611164l29.03130741 4.95234863a4.32142129 4.32142129 0 1 0 1.4519975-8.51319993L650.28547669 599.10256458V581.14273855h30.24994819a4.32142129 4.32142129 0 0 0 0-8.64284257H650.28547669v-18.21911131l30.28451943-7.4328445a4.32142129 4.32142129 0 0 0-2.05699634-8.39220002L650.28547669 545.37865684z" fill="#000000" p-id="1012"></path><path d="M455.82152492 529.28568472a30.24994819 30.24994819 0 1 1 0-60.49989636 30.24994819 30.24994819 0 0 1 0 60.49989636z m0 8.64284217a38.89279036 38.89279036 0 1 0 0-77.7855807 38.89279036 38.89279036 0 0 0 0 77.78558071zM568.17847508 529.28568472a30.24994819 30.24994819 0 1 1 0-60.49989636 30.24994819 30.24994819 0 0 1 0 60.49989636z m0 8.64284217a38.89279036 38.89279036 0 1 0 0-77.7855807 38.89279036 38.89279036 0 0 0 0 77.78558071z" fill="#000000" p-id="1013"></path></svg>